<svg xmlns="http://www.w3.org/2000/svg" xmlns:xlink="http://www.w3.org/1999/xlink" viewBox="0 0 133.16 51.42"><defs><style>.cls-1{fill:url(#linear-gradient);}.cls-2{fill:url(#linear-gradient-2);}.cls-3{fill:url(#linear-gradient-3);}.cls-4{fill:url(#linear-gradient-4);}.cls-5{fill:url(#linear-gradient-5);}.cls-6{font-size:10.34px;fill:#fff;font-family:AvenirNext-Regular, Avenir Next;}</style><linearGradient id="linear-gradient" x1="-9.17" y1="17.33" x2="110.78" y2="19.68" gradientUnits="userSpaceOnUse"><stop offset="0" stop-color="blue"/><stop offset="1" stop-color="#30a9ff"/></linearGradient><linearGradient id="linear-gradient-2" x1="-9.16" y1="16.8" x2="110.8" y2="19.15" xlink:href="#linear-gradient"/><linearGradient id="linear-gradient-3" x1="-9.16" y1="16.77" x2="110.8" y2="19.12" xlink:href="#linear-gradient"/><linearGradient id="linear-gradient-4" x1="-9.14" y1="15.69" x2="110.82" y2="18.04" xlink:href="#linear-gradient"/><linearGradient id="linear-gradient-5" x1="-9.13" y1="15.01" x2="110.83" y2="17.36" xlink:href="#linear-gradient"/></defs><g id="Layer_2" data-name="Layer 2"><g id="Layer_1-2" data-name="Layer 1"><path class="cls-1" d="M0,1.1H13.84A10.32,10.32,0,0,1,24.59,11.69,10.36,10.36,0,0,1,13.84,22.27H8.05V34.18H0ZM13.07,15.33c2.09,0,3.25-1.93,3.25-3.86A3.21,3.21,0,0,0,13.07,8h-5v7.34Z"/><path class="cls-2" d="M29.78,1.1h8.1V34.18h-8.1Z"/><path class="cls-3" d="M41.08,1.1h8.43L56.19,17,62.86,1.1h8.43L56.68,35.29h-1Z"/><path class="cls-4" d="M90.43,0c10.42,0,17.81,7.77,17.81,17.64s-7.39,17.65-17.81,17.65S72.62,27.51,72.62,17.64,80,0,90.43,0Zm0,27.62c5.84,0,9.59-4.41,9.59-10s-3.75-10-9.59-10-9.6,4.41-9.6,10S84.53,27.62,90.43,27.62Z"/><path class="cls-5" d="M117.5,8.27h-7.39V1.1h23V8.27h-7.5V34.18H117.5Z"/><text class="cls-6" transform="translate(75.81 47.17)">by Swayed</text></g></g></svg>