<svg xmlns="http://www.w3.org/2000/svg" xmlns:xlink="http://www.w3.org/1999/xlink" viewBox="0 0 133.16 51.42"><defs><style>.cls-1{fill:url(#linear-gradient);}.cls-2{fill:url(#linear-gradient-2);}.cls-3{fill:url(#linear-gradient-3);}.cls-4{fill:url(#linear-gradient-4);}.cls-5{fill:url(#linear-gradient-5);}.cls-6{fill:#ffce59;stroke:#ffce59;stroke-miterlimit:10;stroke-width:0.25px;}.cls-7{font-size:10.34px;fill:#fff;font-family:AvenirNext-Regular, Avenir Next;}</style><linearGradient id="linear-gradient" x1="-9.17" y1="17.33" x2="110.78" y2="19.68" gradientUnits="userSpaceOnUse"><stop offset="0" stop-color="blue"/><stop offset="1" stop-color="#30a9ff"/></linearGradient><linearGradient id="linear-gradient-2" x1="-9.16" y1="16.8" x2="110.8" y2="19.15" xlink:href="#linear-gradient"/><linearGradient id="linear-gradient-3" x1="-9.16" y1="16.77" x2="110.8" y2="19.12" xlink:href="#linear-gradient"/><linearGradient id="linear-gradient-4" x1="-9.14" y1="15.69" x2="110.82" y2="18.04" xlink:href="#linear-gradient"/><linearGradient id="linear-gradient-5" x1="-9.13" y1="15.01" x2="110.83" y2="17.36" xlink:href="#linear-gradient"/></defs><g id="Layer_2" data-name="Layer 2"><g id="Layer_1-2" data-name="Layer 1"><path class="cls-1" d="M0,1.1H13.84A10.32,10.32,0,0,1,24.59,11.69,10.36,10.36,0,0,1,13.84,22.27H8.05V34.18H0ZM13.07,15.33c2.09,0,3.25-1.93,3.25-3.86A3.21,3.21,0,0,0,13.07,8h-5v7.34Z"/><path class="cls-2" d="M29.78,1.1h8.1V34.18h-8.1Z"/><path class="cls-3" d="M41.08,1.1h8.43L56.19,17,62.86,1.1h8.43L56.68,35.29h-1Z"/><path class="cls-4" d="M90.43,0c10.42,0,17.81,7.77,17.81,17.64s-7.39,17.65-17.81,17.65S72.62,27.51,72.62,17.64,80,0,90.43,0Zm0,27.62c5.84,0,9.59-4.41,9.59-10s-3.75-10-9.59-10-9.6,4.41-9.6,10S84.53,27.62,90.43,27.62Z"/><path class="cls-5" d="M117.5,8.27h-7.39V1.1h23V8.27h-7.5V34.18H117.5Z"/><path class="cls-6" d="M5.83,3H14.1A19.09,19.09,0,0,1,16,3.23H5.83Zm0,1.1H17.9l.39.28H5.83Zm0,1.1h13.5l.28.28H5.83Zm0,12.13H19.61l-.28.28H5.83Zm0,1.11H18.34l-.49.27h-12Zm0,1.1H16.19a12,12,0,0,1-1.43.27H5.83Zm10.36-3.31h4.19l-.22.28H15.75Zm-.11-9.92h4.19l.22.27h-4Zm1.27,8.82H21l-.17.27H17.13Zm-.11-7.72h3.64l.11.27H17.4ZM18,14h3.37l-.12.28H17.85ZM17.9,8.47h3.42l.11.28H18.07Zm.39,1.1H21.6v.28H18.4Zm.05,3.31h3.31l-.11.28H18.29Zm.17-1.1h3.25l-.05.17v.11H18.45Zm0-1.1h3.2V11h-3.2Z"/><path class="cls-6" d="M32.13,2.85h2.92v.27H32.13Zm0,1.1h2.92v.28H32.13Zm0,1.1h2.92v.28H32.13Zm0,1.11h2.92v.27H32.13Zm0,1.1h2.92v.27H32.13Zm0,1.1h2.92v.28H32.13Zm0,1.1h2.92v.28H32.13Zm0,1.11h2.92v.27H32.13Zm0,1.1h2.92V12H32.13Zm0,1.1h2.92v.28H32.13Zm0,1.1h2.92v.28H32.13Zm0,1.11h2.92v.27H32.13Zm0,1.1h2.92v.28H32.13Zm0,1.1h2.92v.28H32.13Zm0,1.11h2.92v.27H32.13Z"/><path class="cls-6" d="M44.42,3h3l.11.27H44.59Zm.45,1.1h3l.11.28H45Zm.49,1.1h3l.11.28H45.53Zm.44,1.11h3l.11.27H46Zm.5,1.1h3l.11.27H46.46Zm.5,1.1h2.92l.11.28H47Zm.44,1.1h3l.11.28H47.4Zm.49,1.11h2.92l.11.27H47.9Zm.5,1.1h2.92l.11.28H48.39Zm.44,1.1h2.92l.11.28H48.83Zm.5,1.1h2.92l.11.28H49.33Zm.44,1.11h2.92l.11.27H49.77Zm.49,1.1H53l.11.28H50.27Zm.44,1.1h2.93l.11.28H50.71ZM51,18.4h2.87l.11.27H51.21Zm.5,1.1h2.81l.11.27H51.7ZM52,20.6h2.86l.11.28H52.14Zm.49,1.1h2.82l.11.28H52.64Zm.45,1.11h2.86l.11.27H53.08Zm.49,1.1h2.81l.11.27H53.58Zm.5,1.1h2.75l.11.28h-2.7Zm3.2,1.1.11.28H54.51l-.16-.28Zm-.06,1.11-.17.27H55l-.17-.27Zm-.5,1.1-.16.28h-.88l-.17-.28Zm-.44,1.1-.11.22-.11-.22Z"/><path class="cls-6" d="M75,16.14h3l0,.27H75ZM75,17.24h3v.27H75Zm0,1.1h3l0,.28H75ZM75.14,15h3l-.11.28h-3Zm-.06,4.41h3l.11.28h-3Zm.22-5.51h3.09l-.11.27h-3Zm0,6.62h3l.11.27h-3Zm.33-7.72h3.14l-.11.27H75.52Zm.33-1.11h3.31l-.17.28h-3.2Zm.44-1.1h3.47l-.22.28H76.24Zm.55-1.1h3.75l-.22.27H76.74Zm.72-1.1H81.7l-.33.27h-4Zm.77-1.11H83l-.38.28H78.17Zm1-1.1h5.79l-.72.28H79.16Zm1.27-1.1h19l.27.27H92.39l-2.2-.16-2,.16H80.26ZM82.3,4H98.07l.33.27H81.86ZM84.56,2.9H95.81l.72.28H83.85Zm5.63-1,2.92.23H87.49Zm10.75,4.36-.06,0,.34.33H95.87l-.61-.28Zm.94,1.1.27.28H97.74l-.38-.28Zm.82,1.11.22.27H99l-.33-.27Zm.67,1.1.16.27H100l-.28-.27Zm-2.87,1.1h3.42l.11.28h-3.37Zm.61,1.1h3.25l.11.28h-3.2Zm.49,1.11h3.14l.12.27h-3.09Zm.33,1.1H105l.11.27H102Zm.11,6.62h3l-.06.27h-3.09Zm.17-5.52h3l.06.28h-3Zm.05,4.41h3l-.11.28h-3Zm.11-1.1h3v.28h-3Zm0-2.2h3v.27h-3Zm.06,1.1h3v.27h-3Z"/><path class="cls-6" d="M112.47,3.18h17.86v.27H112.47Zm0,1.1h17.86v.28H112.47Zm0,1.1h17.86v.28H112.47Z"/><text class="cls-7" transform="translate(75.81 47.17)">by Swayed</text></g></g></svg>