<svg xmlns="http://www.w3.org/2000/svg" viewBox="0 0 28.04 33.46"><defs><style>.cls-1{fill:#fff;}</style></defs><g id="Layer_2" data-name="Layer 2"><g id="Layer_1-2" data-name="Layer 1"><path class="cls-1" d="M15.87,23.19a10.26,10.26,0,0,0-1.16-.9l-1-.65L12.87,21,6.93,16.94a5.66,5.66,0,0,1-2.4-4.68C4.56,8.71,7,5.5,9.74,3.51A19.69,19.69,0,0,1,18.88.13a19.35,19.35,0,0,1,4.5,0,6.81,6.81,0,0,1,3.75,1.68c1.34,1.28.94,2.74.44,4.31-.39,1.21-.76,2.43-1.1,3.66a31,31,0,0,1-1,3.46,2.58,2.58,0,0,1-.86,1.12,3.5,3.5,0,0,1-2.73.25,16.06,16.06,0,0,1-2.06-.56c-.53-.18-1.38-.29-1.64-.87a1.14,1.14,0,0,1,0-.66,15.2,15.2,0,0,1,1.13-3.13c.31-.75.59-1.5.86-2.26.15-.41.48-.89.34-1.33A.9.9,0,0,0,20,5.28a3.16,3.16,0,0,0-2.71.42,11.73,11.73,0,0,0-4.65,3.52A3.06,3.06,0,0,0,12,11.33c.22,1.56,2.06,2.43,3.23,3.25,1.65,1.15,3.3,2.33,5,3.43a7.79,7.79,0,0,1,3.42,4,6.7,6.7,0,0,1-.4,5.3A11,11,0,0,1,20,30.63a12.37,12.37,0,0,1-3,1.67A22.11,22.11,0,0,1,8.2,33.4a15.34,15.34,0,0,1-3.75-.64,7.23,7.23,0,0,1-2.91-1.37c-2.72-2.5-1.2-6.23-.28-9.17.16-.52.54-1.17,1.12-1.27a5.58,5.58,0,0,1,2.31.4l1.42.43a6.15,6.15,0,0,1,1.27.44.88.88,0,0,1,.4.56,2.15,2.15,0,0,1-.29,1.27,9.33,9.33,0,0,0-.65,1.44,1.9,1.9,0,0,0,.07,1.33c.47,1,1.67,1,2.62,1.14a23.59,23.59,0,0,0,2.65.18A4.77,4.77,0,0,0,15.79,27a2.8,2.8,0,0,0,.94-1.53A2.4,2.4,0,0,0,15.87,23.19Z"/></g></g></svg>