<svg id="Layer_1" data-name="Layer 1" xmlns="http://www.w3.org/2000/svg" xmlns:xlink="http://www.w3.org/1999/xlink" viewBox="0 0 88.76 27.37"><defs><style>.cls-1{fill:url(#linear-gradient);}.cls-2{fill:url(#linear-gradient-2);}.cls-3{fill:url(#linear-gradient-3);}.cls-4{fill:url(#linear-gradient-4);}.cls-5{font-size:6.6px;fill:#b0bbbf;font-family:AircoStd-BoldItalic, Airco Std;font-weight:700;font-style:italic;letter-spacing:0.03em;}.cls-6{letter-spacing:0.05em;}.cls-7{fill:#ffce59;}.cls-8{fill:url(#linear-gradient-5);}.cls-9{fill:url(#linear-gradient-6);}</style><linearGradient id="linear-gradient" x1="7.05" y1="17.83" x2="98.85" y2="17.92" gradientUnits="userSpaceOnUse"><stop offset="0" stop-color="blue"/><stop offset="1" stop-color="#30a9ff"/></linearGradient><linearGradient id="linear-gradient-2" x1="7.06" y1="16.7" x2="98.85" y2="16.79" xlink:href="#linear-gradient"/><linearGradient id="linear-gradient-3" x1="7.06" y1="15.43" x2="98.85" y2="15.52" xlink:href="#linear-gradient"/><linearGradient id="linear-gradient-4" x1="7.06" y1="14" x2="98.85" y2="14.09" xlink:href="#linear-gradient"/><linearGradient id="linear-gradient-5" x1="7.06" y1="14.66" x2="98.85" y2="14.75" xlink:href="#linear-gradient"/><linearGradient id="linear-gradient-6" x1="7.05" y1="18.38" x2="98.85" y2="18.47" xlink:href="#linear-gradient"/></defs><path class="cls-1" d="M30.13,20.86h0a7.09,7.09,0,0,1-4.44,1.9c-1.11,0-1.93-.47-1.81-1.67l.52-5.1c.07-.7-.07-.92-.52-.92s-.56-.2-.38-.58l.38-.82a1,1,0,0,1,.9-.64,10,10,0,0,1,1.41-.11c1.55,0,2,.68,1.74,2.56L27.4,19c-.07.54.09.8.47.8,1.18,0,2.8-2.21,3.52-6.06.07-.35.12-.68.83-.68h2.07c.35,0,.61.21.46.78L33.4,19c-.13.52.07.8.53.8.8,0,2.16-1.43,2.85-2.68A17.08,17.08,0,0,0,38,13.76c.16-.56.38-.68.91-.68h2.15c.4,0,.6.3.47.78-1.32,5.63-6.31,8.92-9.57,8.92C30.64,22.78,29.92,22,30.13,20.86Z" transform="translate(-7.99 -4.63)"/><path class="cls-2" d="M40.93,19.21a7.27,7.27,0,0,1,2.23-4.68,9.83,9.83,0,0,1,7.43-2.75,14.75,14.75,0,0,1,4,.62c.4.12.51.45.3.85L52.17,18.6c-.29.59-.1.92.35.92s.56.19.38.57l-.38.82a1,1,0,0,1-.9.65,11.17,11.17,0,0,1-1.54.1c-1.16,0-2.1-.57-2-1.69h0a6.57,6.57,0,0,1-4.24,1.73C41.75,21.7,40.93,20.58,40.93,19.21Zm9.17-3.76.59-1.15a7.4,7.4,0,0,0-1.3-.14,4.35,4.35,0,0,0-3.13,1.32A4.09,4.09,0,0,0,44.93,18c0,.57.39.85,1,.85C47.51,18.86,49.3,17,50.1,15.45Z" transform="translate(-7.99 -4.63)"/><path class="cls-3" d="M68.07,17.43c0-2.9,3.53-6.94,8-6.94,2.06,0,3.71,1.09,3.71,3,0,1.43-.66,2-2,2.37a37.49,37.49,0,0,1-6,1,2.72,2.72,0,0,0,0,.28c0,.54.62.92,1.91.92a11.92,11.92,0,0,0,3.22-.44c.37-.1.57,0,.63.37l.15,1.22c.06.43-.12.59-.59.75a16.47,16.47,0,0,1-4.68.61C69.78,20.5,68.07,19.57,68.07,17.43Zm7.36-3.2c.72-.17,1.2-.38,1.2-.92s-.38-.73-1-.73a4.06,4.06,0,0,0-3.13,2.09A17.25,17.25,0,0,0,75.43,14.23Z" transform="translate(-7.99 -4.63)"/><path class="cls-4" d="M79.71,18A7.15,7.15,0,0,1,82,13.34a9.14,9.14,0,0,1,6.66-2.76,13.49,13.49,0,0,1,2.2.22l1.27-2.49c.29-.57.45-.64.9-.64h2.37c.31,0,.49.1.49.31a1,1,0,0,1-.14.45l-4.56,9c-.3.59-.11.92.34.92s.56.19.39.57l-.39.82a1,1,0,0,1-.9.65,11,11,0,0,1-1.53.1c-1.17,0-2.06-.57-2-1.69h0a7,7,0,0,1-4.51,1.73C80.53,20.5,79.71,19.4,79.71,18Zm9.36-3.76.6-1.15A6.13,6.13,0,0,0,88.34,13a4.51,4.51,0,0,0-3.27,1.32,4.35,4.35,0,0,0-1.34,2.54c0,.58.4.84,1,.84C86.29,17.66,88.27,15.8,89.07,14.25Z" transform="translate(-7.99 -4.63)"/><text class="cls-5" transform="translate(57.59 21.54)">lea<tspan class="cls-6" x="12.52" y="0">d</tspan><tspan x="18.1" y="0">s</tspan></text><path class="cls-7" d="M50.56,25.18c-.94,0-1.88.05-2.82.1s-1.93.12-2.9.2c-1.2.1-2.39.21-3.58.34-1.36.15-2.7.32-4,.51s-2.85.43-4.26.69-2.84.53-4.25.84-2.71.61-4.05.95-2.43.63-3.63,1c-1,.29-2,.59-3,.91-.75.24-1.5.48-2.25.74l-1.28.44-.24.08a.59.59,0,0,1-.83-.42c-.1-.88-.19-1.75-.29-2.62a.65.65,0,0,1,.51-.66l.68-.19,1.9-.52c1-.26,1.93-.5,2.91-.73,1.22-.29,2.45-.56,3.68-.82,1.41-.29,2.82-.56,4.24-.8s3-.49,4.57-.69,3.09-.38,4.64-.53,3-.26,4.47-.35c1.34-.08,2.68-.13,4-.17,1.11,0,2.22-.05,3.34-.05l2.36,0c.41,0,.83,0,1.23,0a.86.86,0,0,1,.46.13.44.44,0,0,1,.16.42c0,.32-.22,1-.68,1.12a1.26,1.26,0,0,1-.39,0Z" transform="translate(-7.99 -4.63)"/><path class="cls-8" d="M17.51,18.55a5.13,5.13,0,0,0-.69-.54l-.57-.4-.54-.37c-1.19-.81-2.38-1.62-3.56-2.45A3.35,3.35,0,0,1,10.71,12a6.88,6.88,0,0,1,3.12-5.25,12.16,12.16,0,0,1,8.19-2,4.12,4.12,0,0,1,2.25,1c.8.77.56,1.65.26,2.59-.23.73-.45,1.46-.66,2.2a16.27,16.27,0,0,1-.58,2.07,1.5,1.5,0,0,1-.51.68,2.14,2.14,0,0,1-1.63.15,10.47,10.47,0,0,1-1.25-.34c-.31-.11-.82-.17-1-.52a.73.73,0,0,1,0-.39,9.92,9.92,0,0,1,.68-1.89c.19-.44.36-.9.52-1.35.09-.24.28-.53.2-.8A.53.53,0,0,0,20,7.8a1.87,1.87,0,0,0-1.62.25,7.05,7.05,0,0,0-2.8,2.11,1.85,1.85,0,0,0-.33,1.27c.13.93,1.24,1.46,1.94,2,1,.69,2,1.4,3,2a4.74,4.74,0,0,1,2.05,2.39A4,4,0,0,1,22,21,6.56,6.56,0,0,1,20,23a7.45,7.45,0,0,1-1.81,1,13.19,13.19,0,0,1-5.29.66,9.07,9.07,0,0,1-2.25-.39,4.15,4.15,0,0,1-1.74-.81C7.28,22,8.2,19.73,8.75,18c.09-.31.32-.7.67-.76a3.44,3.44,0,0,1,1.38.24l.86.26a4.26,4.26,0,0,1,.76.26.53.53,0,0,1,.24.34,1.26,1.26,0,0,1-.18.76,5.59,5.59,0,0,0-.38.87,1.13,1.13,0,0,0,0,.79c.29.61,1,.62,1.58.69s1.06.1,1.59.11a2.9,2.9,0,0,0,2.17-.67,1.7,1.7,0,0,0,.56-.92A1.44,1.44,0,0,0,17.51,18.55Z" transform="translate(-7.99 -4.63)"/><path class="cls-9" d="M55,25.4l-.25,0a.42.42,0,0,1-.22-.08.39.39,0,0,1-.15-.34,4.54,4.54,0,0,1,.18-1.33.63.63,0,0,1,.22-.33c.27-.19.69-.05,1,0a11.48,11.48,0,0,0,1.17.07c2.57,0,3.71-1.23,4.23-2.42l.35-.81h-.06a7.32,7.32,0,0,1-4.59,1.73,2.17,2.17,0,0,1-2.32-2.33,5.06,5.06,0,0,1,.51-2l2.42-5.4c.29-.64.47-.7.92-.7h2.35c.45,0,.63.27.35.87l-2.18,4.8c-.45,1-.26,1.57.42,1.57,1.64,0,3.85-2.42,5.15-5.26l.58-1.24c.29-.64.45-.74.9-.74h2.37c.29,0,.47.12.47.37a1.32,1.32,0,0,1-.14.5l-4,8.84c-1.36,3-4,4.36-7.88,4.36A15.31,15.31,0,0,1,55,25.4Z" transform="translate(-7.99 -4.63)"/></svg>